<svg width="42" height="42" viewBox="0 0 42 42" fill="none" xmlns="http://www.w3.org/2000/svg">
    <path d="M18.3599 18.4302L18.3599 18.4302C18.7972 17.7103 19.5425 16.9063 20.2714 16.2126C21.445 15.0945 21.88 13.3278 21.1151 11.8316L19.6539 8.9741C19.6539 8.97409 19.6539 8.97408 19.6539 8.97407C19.0897 7.87121 17.9082 7.04011 16.5168 7.22627L18.3599 18.4302ZM18.3599 18.4302L18.3567 18.4357M18.3599 18.4302L18.3567 18.4357M18.3567 18.4357C18.3052 18.527 18.2885 18.6338 18.3102 18.7365C18.7123 20.8633 20.1782 22.9442 21.4648 24.4189L21.4648 24.4189M18.3567 18.4357L21.4648 24.4189M21.4648 24.4189L21.4684 24.4229M21.4648 24.4189L21.4684 24.4229M21.4684 24.4229C21.5595 24.5218 21.6778 24.5918 21.8084 24.6248C21.9379 24.6575 22.0743 24.6525 22.201 24.6104L25.0781 23.7312L25.0781 23.7312M21.4684 24.4229L25.0781 23.7312M25.0781 23.7312C25.8138 23.5063 26.604 23.5178 27.3324 23.764C28.0609 24.0102 28.6887 24.4778 29.1244 25.0975L31.2086 28.0619L25.0781 23.7312ZM31.6054 30.8161L31.6054 30.8161C32.0057 29.8465 31.7459 28.8274 31.2086 28.0621L31.6054 30.8161ZM31.6054 30.8161C31.2257 31.7362 30.4973 33.0462 29.1837 33.914C27.8293 34.8079 25.9599 35.1612 23.4779 34.3291C20.7044 33.3983 18.0625 31.0542 15.8586 28.0263C13.6444 24.9831 11.8194 21.1782 10.7127 17.2092L10.7127 17.2092M31.6054 30.8161L10.7127 17.2092M10.7127 17.2092C9.67376 13.485 10.3116 11.0272 11.7449 9.46013L11.7449 9.46011M10.7127 17.2092L11.7449 9.46011M11.7449 9.46011C13.1383 7.93626 15.1456 7.41046 16.5167 7.22629L11.7449 9.46011ZM18.4121 9.62696V9.62769L19.8514 12.4416L19.8514 12.4417C20.3124 13.3443 20.0744 14.48 19.2831 15.2333C18.5336 15.9473 17.6801 16.8528 17.1451 17.7321C16.9182 18.1083 16.8389 18.5517 16.9213 18.9802L16.9214 18.9809C17.3914 21.4737 19.061 23.784 20.3891 25.3059C20.9456 25.9436 21.8311 26.1608 22.622 25.9192C22.622 25.9192 22.622 25.9192 22.622 25.9192L25.5016 25.0392L25.5017 25.0392C25.948 24.9029 26.4271 24.9099 26.8691 25.0594C27.3111 25.2089 27.6934 25.4932 27.9593 25.8715L30.0435 28.836C30.3882 29.3262 30.4775 29.8658 30.2959 30.3056L30.111 30.2292L30.2959 30.3056C29.9627 31.1122 29.3698 32.1325 28.3906 32.7796L28.3905 32.7797C27.4515 33.399 26.0567 33.7432 23.9382 33.0327L23.9382 33.0327C21.5618 32.2354 19.1333 30.1511 17.0108 27.2343C14.8987 24.3321 13.1413 20.6754 12.074 16.8505L12.074 16.8504C11.117 13.417 11.7793 11.4879 12.8 10.3714L18.4121 9.62696ZM18.4121 9.62696L18.3902 9.58405M18.4121 9.62696L18.3902 9.58405M18.3902 9.58405C18.0279 8.87617 17.3631 8.49719 16.7098 8.58489L16.7098 8.5849M18.3902 9.58405L16.7098 8.5849M16.7098 8.5849C15.4613 8.75288 13.861 9.21055 12.8 10.3713L16.7098 8.5849Z"
          fill="#F9F9F9" stroke="#1D1D35" stroke-width="0.4"/>
</svg>
